<?xml version="1.0" encoding="UTF-8"?> <svg xmlns="http://www.w3.org/2000/svg" width="84" height="86" viewBox="0 0 84 86" fill="none"> <path opacity="0.3" d="M13.8077 0L19.4644 3.20623L25.0694 6.50198L25.1211 13.004L25.0694 19.5059L19.4644 22.8017L13.8077 26.0079L8.15094 22.8017L2.54591 19.5059L2.49422 13.004L2.54591 6.50198L8.15094 3.20623L13.8077 0Z" fill="white"></path> <path opacity="0.3" d="M37.2552 17.7585L47.8262 23.7502L58.3006 29.9091L58.3972 42.0597L58.3006 54.2103L47.8262 60.3692L37.2552 66.3608L26.6842 60.3692L16.2098 54.2103L16.1132 42.0597L16.2098 29.9091L26.6842 23.7502L37.2552 17.7585Z" fill="white"></path> <path opacity="0.8" d="M70.8223 59.8182L76.479 63.0245L82.0841 66.3202L82.1357 72.8222L82.0841 79.3242L76.479 82.6199L70.8223 85.8261L65.1656 82.6199L59.5606 79.3242L59.5089 72.8222L59.5606 66.3202L65.1656 63.0245L70.8223 59.8182Z" fill="white"></path> <path opacity="0.5" d="M24.0889 51.2437L29.7456 54.4499L35.3507 57.7456L35.4024 64.2476L35.3507 70.7496L29.7456 74.0453L24.0889 77.2516L18.4322 74.0453L12.8272 70.7496L12.7755 64.2476L12.8272 57.7456L18.4322 54.4499L24.0889 51.2437Z" fill="white"></path> </svg> 