<?xml version="1.0" encoding="UTF-8"?> <svg xmlns="http://www.w3.org/2000/svg" width="44" height="44" viewBox="0 0 44 44" fill="none"> <path d="M1 1H43V43H1V1Z" fill="white" stroke="white" stroke-width="2"></path> <path d="M12.0144 15.895C12.0303 15.7377 12.0089 15.579 11.9521 15.4315C11.8953 15.284 11.8046 15.152 11.6873 15.0462L9.26432 12.1238V11.6875H16.7871L22.6016 24.4554L27.7138 11.6875H34.8851V12.124L32.8136 14.1125C32.726 14.1794 32.6583 14.2689 32.6177 14.3715C32.5772 14.4741 32.5653 14.5858 32.5835 14.6946V29.3054C32.5653 29.4142 32.5772 29.5259 32.6177 29.6285C32.6583 29.7311 32.726 29.8206 32.8136 29.8875L34.8366 31.876V32.3125H24.6611V31.876L26.7568 29.8389C26.9627 29.6326 26.9627 29.5722 26.9627 29.257V17.447L21.136 32.2639H20.3485L13.5649 17.447V27.3776C13.537 27.5836 13.5563 27.7933 13.6214 27.9908C13.6864 28.1883 13.7955 28.3683 13.9404 28.5173L16.6659 31.8274V32.2639H8.9375V31.8276L11.663 28.5173C11.8067 28.3682 11.9134 28.1874 11.9744 27.9894C12.0355 27.7914 12.0491 27.5818 12.0144 27.3776V15.895Z" fill="black"></path> </svg> 