<?xml version="1.0" standalone="no"?>
<!DOCTYPE svg PUBLIC "-//W3C//DTD SVG 20010904//EN"
 "http://www.w3.org/TR/2001/REC-SVG-20010904/DTD/svg10.dtd">
<svg version="1.0" xmlns="http://www.w3.org/2000/svg"
 width="1024.000000pt" height="1024.000000pt" viewBox="0 0 1024.000000 1024.000000"
 preserveAspectRatio="xMidYMid meet">
<metadata>
Created by potrace 1.16, written by Peter Selinger 2001-2019
</metadata>
<g transform="translate(0.000000,1024.000000) scale(0.100000,-0.100000)"
fill="#0C0F2B" stroke="none">
<path d="M4778 8411 c-161 -82 -307 -161 -325 -176 -59 -46 -76 -95 -81 -227
l-4 -117 -272 -137 -271 -136 -200 98 c-186 92 -204 99 -260 99 -47 0 -70 -6
-105 -26 -25 -15 -172 -90 -328 -169 -156 -78 -299 -156 -319 -173 -20 -18
-46 -52 -57 -77 -20 -42 -21 -65 -24 -401 -2 -237 0 -371 8 -398 6 -22 25 -59
43 -83 29 -38 64 -59 332 -195 165 -84 305 -154 310 -156 6 -3 -4 -20 -21 -38
-18 -19 -37 -44 -43 -56 -7 -15 -11 -140 -11 -399 l0 -378 27 -28 c24 -25 33
-28 95 -28 l68 0 2 748 c3 715 4 749 22 786 34 67 140 119 200 96 l26 -10 0
-300 c0 -233 3 -300 13 -300 21 1 140 55 192 89 60 38 147 121 185 176 70 102
120 242 120 335 0 34 5 62 13 68 6 6 113 61 237 122 124 62 227 114 229 115 2
2 -11 19 -28 37 -18 18 -48 66 -68 106 -20 39 -37 72 -38 72 -2 0 -83 -40
-181 -89 -99 -48 -252 -123 -340 -165 l-161 -77 -134 3 c-92 1 -147 -2 -174
-12 -125 -42 -224 -165 -241 -297 -3 -29 -9 -53 -13 -52 -3 0 -49 21 -101 47
l-95 47 -3 200 c-2 198 -2 200 20 214 13 8 94 52 182 97 l159 82 111 -54 c61
-30 117 -54 124 -54 8 0 233 108 500 240 267 132 502 245 522 251 73 22 170
-48 170 -124 0 -59 -44 -111 -125 -149 -78 -36 -75 -32 -55 -89 20 -52 91
-156 115 -165 7 -3 30 3 52 14 169 86 415 99 616 32 48 -17 94 -30 102 -30 26
0 84 60 109 113 44 93 44 92 -21 122 -69 31 -101 59 -120 104 -34 80 31 171
124 171 32 0 84 -21 230 -91 434 -211 504 -244 616 -295 65 -29 139 -64 163
-78 l45 -25 93 43 c51 24 102 47 114 50 15 5 71 -18 200 -84 99 -50 184 -96
188 -103 5 -6 9 -97 9 -201 l0 -190 -105 -52 c-58 -28 -107 -50 -109 -48 -2 1
-5 27 -7 56 -9 111 -89 224 -197 278 -58 29 -65 30 -196 30 -160 1 -116 -15
-548 193 l-303 145 -10 -36 c-12 -44 -59 -127 -90 -160 -12 -13 -18 -27 -14
-31 5 -4 79 -41 164 -81 85 -41 187 -90 225 -110 l70 -36 7 -79 c16 -199 154
-422 321 -519 37 -22 174 -76 193 -76 2 0 5 136 6 303 l3 302 34 3 c84 8 157
-34 192 -113 17 -38 19 -86 19 -777 l0 -738 69 0 c65 0 71 2 95 31 l26 31 0
377 c0 410 3 387 -58 453 -14 15 -24 29 -21 31 2 2 143 75 313 162 266 137
312 164 337 197 47 65 51 111 47 488 l-3 345 -29 52 c-16 29 -38 61 -50 72
-38 36 -707 363 -753 369 -37 4 -64 -7 -250 -96 l-209 -101 -272 137 -272 138
-4 113 c-6 130 -25 182 -85 232 -20 17 -164 95 -320 175 -260 132 -288 144
-337 144 -49 0 -77 -12 -346 -149z m482 -399 l129 -68 -22 -22 c-21 -21 -22
-34 -27 -195 l-5 -172 -106 -54 -105 -55 -110 56 -109 56 -3 162 c-2 147 -5
166 -23 192 -12 17 -18 33 -13 38 16 15 239 130 252 130 7 0 71 -31 142 -68z"/>
<path d="M3964 8046 c-28 -13 -55 -29 -59 -35 -13 -21 6 -111 27 -131 20 -19
22 -19 71 0 28 11 60 28 71 39 18 18 18 24 7 76 -8 34 -19 59 -31 65 -24 13
-26 13 -86 -14z"/>
<path d="M6181 8051 c-26 -26 -38 -105 -20 -127 16 -19 92 -54 119 -54 9 0 23
6 30 14 16 20 39 111 31 124 -7 12 -114 62 -131 62 -6 0 -19 -9 -29 -19z"/>
<path d="M4974 7010 c-130 -24 -299 -90 -420 -165 -117 -73 -268 -244 -336
-380 -76 -151 -98 -277 -98 -551 l0 -214 219 0 219 0 4 223 c4 188 8 230 25
278 62 177 205 312 388 365 94 27 232 23 325 -9 147 -52 273 -161 335 -291 46
-97 55 -159 55 -378 l0 -188 220 0 220 0 0 233 c0 172 -4 249 -15 297 -70 297
-267 545 -540 680 -154 76 -253 101 -415 105 -74 2 -158 0 -186 -5z"/>
<path d="M3590 4731 c0 -1246 0 -1270 -19 -1281 -29 -15 -98 -12 -131 5 -35
18 -73 67 -89 114 -7 22 -11 126 -11 294 l0 260 -57 -5 c-50 -5 -102 -28 -358
-157 -165 -84 -312 -164 -327 -178 -60 -57 -63 -81 -63 -493 l0 -375 27 -46
c15 -25 42 -57 60 -71 18 -14 182 -99 363 -189 420 -208 373 -204 648 -66 107
53 199 97 204 97 4 0 126 -57 271 -127 l262 -127 0 -103 c0 -141 12 -183 69
-243 40 -43 83 -67 336 -189 383 -186 321 -187 701 3 161 80 302 156 318 172
55 56 66 92 66 222 0 94 3 122 15 132 8 7 128 68 267 137 l252 125 200 -99
c283 -138 233 -143 657 71 184 92 350 180 369 195 19 16 46 48 60 72 l25 44 3
345 c4 384 0 419 -53 492 -33 45 -53 56 -347 203 -218 109 -327 158 -360 162
l-47 6 -3 -280 -3 -280 -30 -48 c-39 -63 -83 -86 -155 -83 l-55 3 -3 1278 -2
1277 -23 0 c-33 0 -124 -46 -136 -69 -7 -13 -11 -130 -11 -340 l0 -321 -59 0
-58 0 -6 52 c-8 63 -44 120 -106 163 l-43 30 -1066 3 c-759 2 -1078 0 -1105
-8 -47 -14 -111 -71 -140 -124 -22 -41 -22 -44 -25 -726 l-2 -685 83 -43 c135
-68 244 -187 331 -359 l26 -53 811 0 810 0 17 32 c32 59 87 107 183 157 53 28
99 51 102 51 4 0 -9 -28 -28 -63 -37 -68 -68 -174 -80 -273 l-7 -61 -219 -108
c-144 -70 -217 -111 -212 -118 3 -7 15 -24 25 -39 22 -31 28 -26 -64 -58 -36
-13 -36 -13 -94 38 -40 36 -108 77 -218 132 -212 106 -214 106 -413 9 -112
-55 -159 -85 -207 -129 -66 -63 -117 -148 -119 -201 -2 -30 1 -34 58 -56 101
-41 141 -93 132 -172 -4 -36 -13 -52 -41 -78 -56 -51 -89 -47 -264 38 -289
141 -781 367 -843 389 -34 12 -41 11 -149 -39 -105 -49 -114 -52 -143 -40 -38
16 -293 145 -325 165 -22 15 -22 16 -20 211 l3 196 90 48 c50 27 95 49 100 49
6 0 16 -24 22 -53 25 -120 99 -219 198 -267 46 -22 63 -24 200 -24 l150 -1
190 -89 c105 -49 255 -120 334 -157 79 -38 146 -69 148 -69 2 0 13 21 24 47
11 26 38 73 60 105 l39 58 -225 109 -225 109 0 39 c0 158 -110 321 -270 400
l-77 38 -6 155 c-3 85 -6 552 -5 1038 1 852 0 883 -18 903 -25 27 -61 46 -107
54 l-37 7 0 -1271z m2450 582 c67 -39 67 -133 0 -168 -44 -23 -78 -19 -111 14
-81 82 13 213 111 154z m-785 -278 c197 -93 240 -344 84 -490 -26 -25 -60 -50
-74 -57 -14 -6 -25 -18 -25 -25 0 -8 23 -111 50 -229 28 -118 50 -219 50 -224
0 -6 -81 -10 -215 -10 -201 0 -215 1 -215 18 0 10 23 116 50 236 28 120 50
219 50 221 0 1 -12 6 -26 9 -37 10 -121 98 -146 153 -58 131 -3 308 119 380
100 58 200 64 298 18z m806 -104 c21 -22 29 -39 29 -66 0 -51 -44 -95 -95 -95
-50 0 -95 44 -95 93 0 88 99 130 161 68z m1104 -1384 l80 -42 3 -197 2 -198
-190 -95 c-104 -52 -195 -95 -200 -95 -6 0 -58 23 -116 50 -58 28 -112 50
-120 50 -21 0 -177 -72 -606 -281 -314 -153 -382 -183 -428 -186 -49 -5 -60
-2 -87 21 -61 51 -67 126 -16 186 14 17 55 45 92 62 36 17 212 103 391 192
179 89 363 180 410 201 l85 40 150 0 c141 0 153 2 205 26 31 14 72 40 91 57
46 40 96 135 111 207 11 54 12 56 37 50 14 -4 62 -25 106 -48z m-1935 -791
l105 -54 3 -162 c2 -143 5 -166 22 -190 11 -16 20 -31 20 -34 0 -3 -58 -35
-130 -71 l-130 -65 -130 65 c-71 36 -130 66 -130 68 0 2 12 19 26 38 26 34 26
35 22 193 l-3 159 100 53 c55 30 105 54 110 54 6 0 57 -25 115 -54z"/>
<path d="M2905 5881 c-6 -5 -118 -61 -250 -124 -132 -64 -257 -130 -279 -148
-75 -63 -76 -65 -76 -497 l0 -383 25 -49 c14 -27 39 -60 57 -73 18 -14 149
-81 291 -150 l257 -125 0 233 c0 128 3 240 6 248 4 12 -19 28 -85 64 l-91 48
0 178 c0 97 -1 180 -1 185 -1 4 32 25 73 47 120 64 109 33 107 312 -1 243 -4
263 -34 234z"/>
<path d="M7305 5647 c0 -179 3 -248 12 -259 7 -8 46 -30 88 -49 l74 -34 1 -71
c0 -39 3 -124 6 -190 l7 -119 -97 -47 -96 -48 0 -245 c0 -135 2 -245 5 -245 3
0 129 61 280 135 289 143 305 154 340 238 22 54 22 719 -1 796 -19 65 -70 118
-150 156 -33 15 -148 72 -258 126 -109 55 -201 99 -205 99 -4 0 -6 -110 -6
-243z"/>
<path d="M3214 5036 c-64 -28 -64 -26 -64 -392 l0 -332 31 -27 c28 -23 39 -26
93 -23 l61 3 3 393 2 392 -47 0 c-27 -1 -62 -7 -79 -14z"/>
<path d="M6900 4665 l0 -385 70 0 c62 0 74 3 95 25 l25 24 0 323 c0 283 -2
326 -16 347 -22 31 -73 51 -129 51 l-45 0 0 -385z"/>
<path d="M3936 2375 c-18 -18 -39 -88 -34 -113 4 -22 114 -75 139 -67 25 8 35
29 44 87 l7 47 -61 30 c-70 36 -74 36 -95 16z"/>
<path d="M6210 2362 l-55 -27 1 -54 c2 -39 7 -59 22 -74 20 -20 21 -20 69 -2
75 28 93 43 93 77 0 36 -24 84 -49 98 -24 12 -16 14 -81 -18z"/>
</g>
</svg>
