<?xml version="1.0" standalone="no"?>
<!DOCTYPE svg PUBLIC "-//W3C//DTD SVG 20010904//EN"
 "http://www.w3.org/TR/2001/REC-SVG-20010904/DTD/svg10.dtd">
<svg version="1.0" xmlns="http://www.w3.org/2000/svg"
 width="1024.000000pt" height="1024.000000pt" viewBox="0 0 1024.000000 1024.000000"
 preserveAspectRatio="xMidYMid meet">
<metadata>
Created by potrace 1.16, written by Peter Selinger 2001-2019
</metadata>
<g transform="translate(0.000000,1024.000000) scale(0.100000,-0.100000)"
fill="#0C0F2B" stroke="none">
<path d="M4265 9171 c-151 -69 -175 -275 -43 -373 65 -49 137 -60 206 -33 l39
16 148 -71 c81 -38 152 -70 157 -70 14 0 208 111 208 119 0 3 -89 48 -199 99
l-199 93 -6 41 c-4 22 -15 56 -25 76 -52 102 -185 149 -286 103z"/>
<path d="M5935 9013 c-67 -18 -318 -144 -1180 -590 -99 -52 -279 -143 -399
-204 -244 -123 -305 -170 -351 -272 -37 -79 -45 -141 -45 -331 l0 -171 103 -1
c126 -2 222 -31 416 -129 l131 -65 0 180 c0 219 2 226 94 269 35 17 74 31 85
31 12 0 88 -34 169 -76 81 -42 377 -192 657 -334 l510 -257 45 47 c90 93 220
106 318 32 l34 -24 51 27 c29 16 75 40 102 55 155 84 358 192 570 305 310 166
347 185 428 230 71 39 102 41 140 8 19 -18 23 -73 7 -103 -5 -10 -58 -44 -117
-76 -60 -31 -173 -92 -253 -134 -80 -43 -253 -135 -385 -205 -132 -70 -293
-156 -357 -192 l-118 -65 0 -42 c0 -96 -55 -187 -136 -227 -63 -30 -162 -30
-220 -1 -66 34 -134 124 -134 179 0 14 -81 58 -321 178 -177 88 -466 234 -642
325 -177 91 -330 169 -339 173 -17 6 -18 -7 -18 -194 l0 -200 643 -318 c697
-346 756 -374 847 -392 84 -16 221 -7 290 21 58 22 728 365 1228 627 161 84
304 153 317 153 62 0 103 -50 90 -108 -12 -57 75 -9 -1310 -724 -137 -71 -260
-139 -273 -151 -48 -44 -50 -57 -53 -347 -3 -257 -2 -275 14 -278 10 -2 23 1
30 6 7 5 93 51 192 103 394 204 356 180 396 250 50 88 120 156 198 193 58 27
77 31 151 31 l85 0 120 71 c66 40 192 112 280 162 88 50 186 107 218 126 l57
35 0 185 c0 102 4 187 9 190 12 8 159 -65 198 -98 42 -35 73 -102 73 -157 0
-51 -36 -133 -71 -166 -13 -12 -134 -85 -269 -164 -417 -242 -479 -279 -485
-290 -4 -6 0 -18 9 -27 8 -10 28 -44 43 -77 26 -55 28 -70 28 -176 0 -113 -1
-116 -38 -193 -73 -146 -181 -227 -314 -234 -96 -5 -162 17 -226 77 -58 54
-85 103 -106 193 l-16 66 -190 -100 c-217 -114 -598 -319 -604 -323 -5 -5 -1
-248 4 -253 4 -4 231 117 506 269 58 33 117 59 131 59 33 0 78 -45 78 -79 0
-15 -7 -36 -15 -48 -12 -17 -208 -126 -590 -328 -131 -69 -125 -60 -125 -187
0 -72 4 -108 11 -108 12 0 382 188 874 445 66 35 206 106 310 160 173 88 431
224 593 312 81 44 127 85 155 137 20 38 22 57 25 253 l3 212 31 26 c17 14 90
55 163 91 84 41 151 82 186 113 123 109 177 299 134 466 -39 148 -128 241
-310 325 -66 30 -138 64 -160 76 l-40 22 -5 284 c-6 333 -11 355 -108 460 -56
60 -64 65 -557 308 -275 136 -646 321 -825 410 -339 169 -474 232 -550 257
-69 22 -252 26 -325 6z m657 -684 c500 -249 580 -292 567 -302 -2 -2 -223
-115 -490 -250 l-485 -246 -550 275 c-302 152 -552 279 -556 282 -4 4 -4 12 0
18 4 6 198 109 432 229 234 120 443 229 465 241 22 12 48 23 57 23 10 1 262
-121 560 -270z"/>
<path d="M3033 8752 c-125 -45 -193 -141 -193 -272 0 -115 52 -199 152 -249
90 -45 170 -44 266 4 l71 36 210 -106 c116 -58 216 -105 223 -105 18 0 191
103 195 115 1 6 -106 65 -240 132 -322 163 -303 150 -310 211 -20 172 -212
292 -374 234z"/>
<path d="M2535 8037 c-126 -50 -189 -140 -188 -268 3 -212 209 -340 406 -252
l60 27 300 -151 301 -151 114 60 c62 33 112 62 110 63 -2 2 -166 85 -366 184
l-362 181 0 39 c0 106 -87 231 -185 264 -56 19 -146 21 -190 4z"/>
<path d="M1835 7276 c-176 -82 -215 -337 -70 -464 97 -85 235 -96 345 -27 l35
22 121 -61 121 -62 89 49 c49 27 97 55 107 62 15 10 -7 24 -160 101 l-178 89
-8 54 c-15 109 -75 193 -171 237 -70 33 -162 33 -231 0z"/>
<path d="M3689 7157 c-42 -13 -152 -64 -245 -114 -93 -50 -252 -135 -354 -188
-102 -54 -218 -115 -258 -136 -224 -121 -485 -256 -617 -321 -216 -106 -288
-181 -321 -337 -10 -51 -14 -166 -14 -507 l0 -440 -180 -87 c-188 -91 -232
-123 -286 -208 -55 -88 -80 -207 -63 -309 26 -166 123 -275 340 -385 74 -37
316 -165 539 -283 446 -236 468 -247 720 -384 96 -53 308 -166 470 -253 162
-87 378 -203 480 -259 319 -175 333 -181 420 -180 94 1 111 8 415 169 863 458
1148 605 1173 605 11 0 34 -12 51 -26 41 -34 42 -82 4 -123 -16 -16 -104 -68
-198 -116 -93 -49 -240 -125 -325 -170 -85 -46 -245 -130 -355 -188 -110 -57
-286 -150 -391 -205 -231 -122 -272 -135 -403 -130 -96 3 -101 4 -202 55 -123
61 -942 498 -1314 701 -143 77 -268 144 -277 148 -17 6 -18 -20 -18 -447 0
-438 -1 -455 -20 -487 -24 -39 -81 -66 -121 -58 -26 5 -89 38 -358 185 -52 28
-96 51 -98 51 -1 0 -3 -27 -3 -60 0 -179 76 -307 244 -411 44 -27 83 -49 87
-49 5 0 106 -51 227 -114 752 -391 1579 -809 1647 -832 69 -24 96 -28 195 -28
95 -1 127 3 185 22 38 13 301 146 585 295 283 149 600 315 704 368 148 77 201
109 243 151 65 63 109 149 123 238 9 60 15 580 6 580 -2 0 -68 -34 -147 -76
-79 -42 -227 -120 -329 -174 -102 -54 -216 -115 -253 -137 l-69 -38 -3 -57
c-8 -149 -134 -278 -271 -278 -86 0 -160 43 -210 122 l-24 38 -78 -42 c-251
-135 -310 -157 -419 -158 -87 0 -147 15 -233 58 -92 46 -625 328 -734 388
l-79 44 -38 -44 c-21 -24 -57 -51 -79 -60 l-40 -16 -2 -255 -3 -255 -67 41
-68 40 0 67 c0 37 -3 137 -7 222 l-6 156 -46 30 c-97 65 -132 196 -81 312 64
148 232 188 365 87 34 -27 85 -114 85 -146 0 -16 204 -125 780 -416 172 -87
267 -101 391 -58 63 22 349 178 349 190 0 27 53 118 90 155 83 83 179 101 280
54 30 -14 64 -34 76 -45 20 -19 21 -18 175 64 176 95 556 296 642 340 l57 30
0 543 c0 346 -4 544 -10 544 -5 0 -105 -51 -222 -114 -117 -62 -297 -158 -400
-212 l-188 -99 0 -45 c-1 -54 -36 -158 -74 -218 -72 -115 -167 -173 -292 -180
-72 -4 -88 -1 -141 23 l-60 27 -179 -96 c-228 -121 -323 -146 -439 -115 -44
12 -202 89 -425 209 -175 93 -684 364 -1055 560 -148 79 -297 157 -330 175
-33 18 -159 85 -280 148 -364 190 -381 201 -417 271 -47 92 -12 198 87 261 44
29 158 85 171 85 2 0 5 -82 6 -182 l3 -182 120 -64 c277 -146 316 -165 322
-159 3 4 7 288 7 631 1 729 -14 650 136 733 94 52 94 52 65 62 -56 20 -80 37
-89 62 -14 42 0 78 40 96 l35 17 95 -47 94 -47 100 50 100 50 0 42 c0 60 37
118 98 151 60 32 101 34 159 6 114 -55 139 -200 50 -296 -30 -33 -110 -57
-167 -49 -45 6 -55 3 -147 -48 -54 -30 -168 -92 -253 -137 -121 -66 -156 -89
-161 -109 -8 -30 -11 -1216 -3 -1246 3 -13 40 -38 107 -74 56 -29 163 -86 238
-126 75 -41 139 -74 143 -74 4 0 6 178 6 395 l-1 395 -38 20 c-176 89 -153
377 36 457 42 17 135 17 177 -1 52 -21 107 -77 131 -129 21 -48 23 -49 196
-139 468 -242 693 -350 750 -361 115 -21 168 -2 559 203 85 45 274 142 420
217 298 153 725 374 842 437 l78 41 0 231 c0 127 -5 257 -11 289 -25 134 -106
232 -247 297 -48 22 -466 229 -930 460 -464 231 -869 429 -900 440 -40 14 -89
22 -167 24 -94 4 -121 1 -186 -19z m651 -633 c256 -130 505 -258 555 -283 49
-25 91 -51 93 -58 2 -6 -25 -27 -60 -46 -131 -72 -861 -437 -874 -437 -15 0
-1122 554 -1137 569 -13 13 26 36 288 174 479 252 630 327 650 322 11 -2 229
-111 485 -241z m1624 -754 c23 -22 27 -80 7 -103 -12 -15 -371 -205 -866 -458
-143 -73 -339 -175 -435 -226 -234 -126 -265 -137 -405 -131 l-111 5 -599 303
c-330 166 -608 311 -618 322 -39 45 -1 128 59 128 15 0 283 -129 610 -292
l584 -293 94 0 94 0 184 92 c100 51 275 140 388 198 258 134 842 436 895 464
46 24 90 21 119 -9z"/>
<path d="M8386 5575 c-61 -24 -122 -79 -152 -141 -22 -45 -27 -70 -28 -127 0
-119 48 -202 149 -255 42 -22 63 -27 130 -27 95 0 139 19 202 87 129 141 81
369 -96 454 -47 24 -154 28 -205 9z"/>
<path d="M7842 5209 c-119 -61 -253 -131 -297 -154 -44 -23 -251 -131 -460
-240 -449 -234 -468 -245 -500 -299 -22 -37 -25 -58 -31 -193 -6 -133 -5 -155
10 -177 9 -15 24 -26 33 -26 18 0 547 277 596 312 15 11 27 29 27 41 0 40 46
121 92 163 45 41 138 84 183 84 13 0 62 24 107 53 46 30 175 108 288 175 113
67 216 130 229 141 l23 18 -27 41 c-20 31 -29 58 -32 107 -3 36 -10 65 -15 65
-4 0 -106 -50 -226 -111z"/>
<path d="M5945 5154 c-164 -87 -337 -177 -905 -469 -179 -92 -379 -195 -445
-230 -157 -83 -212 -98 -331 -93 l-93 4 -163 81 c-90 45 -286 145 -436 223
-151 77 -277 140 -282 140 -4 0 -13 -13 -20 -30 -15 -37 -81 -97 -115 -106
-14 -3 -27 -15 -30 -28 -3 -11 -4 -203 -3 -425 l3 -404 345 -176 c190 -97 413
-211 495 -254 241 -124 292 -124 523 -4 196 102 178 87 158 136 -69 173 14
428 171 529 98 63 213 75 311 32 49 -22 133 -104 152 -149 l12 -31 27 18 c14
10 161 90 326 177 165 87 341 179 390 205 l90 48 3 446 c2 354 0 446 -10 445
-7 0 -85 -38 -173 -85z"/>
<path d="M8216 4949 c-27 -17 -123 -74 -214 -126 -91 -52 -202 -119 -248 -148
l-82 -53 29 -57 c53 -106 36 -241 -44 -331 -53 -60 -124 -94 -197 -94 -71 0
-124 25 -178 83 l-42 47 -108 -59 c-59 -32 -165 -89 -237 -126 -210 -110 -309
-165 -323 -178 -8 -9 -14 -59 -18 -142 -3 -72 -10 -144 -15 -161 -12 -40 -60
-85 -134 -126 l-60 -34 -5 -103 c-3 -57 -2 -105 1 -107 8 -4 133 57 259 126
47 26 240 129 430 230 190 100 476 253 635 340 438 238 429 234 470 220 69
-23 89 -104 38 -152 -34 -31 -420 -241 -1213 -660 -163 -87 -314 -170 -344
-191 -34 -24 -65 -89 -66 -135 0 -19 7 -50 16 -69 15 -31 39 -45 215 -134
l199 -99 0 28 c0 43 36 175 61 223 32 63 124 155 185 185 62 30 152 41 211 25
23 -6 65 -27 94 -47 29 -19 59 -32 67 -29 9 3 52 27 96 54 45 26 199 115 344
196 l262 149 0 188 c0 216 -6 206 97 157 184 -88 236 -238 128 -368 -27 -31
-161 -115 -445 -278 -85 -49 -213 -122 -283 -163 l-128 -75 8 -55 c34 -233
-63 -445 -242 -531 -50 -24 -73 -29 -135 -29 -94 0 -160 28 -222 95 -23 26
-47 51 -53 56 -29 24 -451 229 -463 224 -12 -4 -14 -26 -10 -113 5 -119 18
-155 71 -197 17 -14 169 -91 336 -170 167 -80 306 -146 308 -149 4 -4 -106
-66 -457 -255 l-195 -106 -59 29 c-83 42 -162 41 -251 -3 -208 -102 -208 -405
0 -513 57 -30 162 -36 222 -13 106 41 183 150 183 260 l0 60 78 40 c79 41 98
51 462 250 118 64 332 178 475 252 380 198 400 210 465 280 97 103 104 130
108 428 l3 251 47 31 c26 17 92 54 147 83 114 59 188 113 232 168 72 90 108
205 100 322 -13 184 -115 321 -308 411 -40 19 -105 50 -144 70 l-70 37 -3 406
c-3 461 4 431 -86 375z"/>
<path d="M1880 3367 l0 -443 83 -41 c45 -23 147 -76 226 -118 79 -41 145 -75
145 -75 1 0 0 199 -2 442 -2 406 -4 444 -20 456 -18 13 -419 222 -427 222 -3
0 -5 -199 -5 -443z"/>
<path d="M1571 3099 c-48 -19 -84 -54 -107 -103 -31 -67 -30 -112 4 -177 50
-97 167 -135 262 -86 24 12 57 39 74 60 58 72 45 198 -26 264 -50 47 -146 66
-207 42z"/>
</g>
</svg>
