<?xml version="1.0" encoding="UTF-8"?> <svg xmlns="http://www.w3.org/2000/svg" width="44" height="44" viewBox="0 0 44 44" fill="none"> <rect width="44" height="44" fill="#3488C6"></rect> <path d="M31.1999 16.6C27.2999 20.2 23.2999 23.8 19.3999 27.4C19.0999 27.7 18.6999 28 18.6999 28.3C20.9999 30 27.2999 34.5 29.2999 36.1C31.3999 37.7 32.2999 37.4 32.7999 34.8C33.6999 30.6 34.5999 26.5 35.4999 22.3C36.0999 19.3 36.7999 16.3 37.3999 13.3C37.5999 12.2 37.3999 11.3 36.5999 11.1C36.0999 11 35.4999 11.1 34.8999 11.3C28.4999 13.7 22.0999 16.2 15.6999 18.7C12.8999 19.8 10.1999 20.8 7.4999 21.9C7.0999 22.1 6.3999 22.6 6.4999 23.1C6.5999 23.6 7.1999 23.7 7.5999 23.9C9.6999 24.6 11.7999 25.2 13.8999 25.8C14.3999 25.9 14.9999 25.8 15.3999 25.6C20.4999 22.4 25.5999 19.2 30.6999 16C31.0999 15.8 32.1999 15.1 32.0999 15.5C32.0999 15.7 31.2999 16.6 31.1999 16.6Z" fill="white"></path> </svg> 