<?xml version="1.0" encoding="UTF-8"?> <svg xmlns="http://www.w3.org/2000/svg" width="54" height="44" viewBox="0 0 54 44" fill="none"> <path d="M54 5.20558C52.0058 6.09627 49.8735 6.69006 47.6424 6.94737C49.9327 5.58165 51.6899 3.40441 52.5192 0.811516C50.3671 2.07827 47.9978 3.00855 45.4706 3.50337C43.4567 1.34593 40.574 0 37.3952 0C31.2746 0 26.3188 4.96806 26.3188 11.1039C26.3188 11.9748 26.4176 12.8259 26.615 13.6374C17.3945 13.1624 9.24022 8.74854 3.77112 2.03869C2.8234 3.68151 2.27057 5.58165 2.27057 7.62033C2.27057 11.48 4.22523 14.8646 7.20658 16.8637C5.39013 16.8043 3.69214 16.3095 2.19159 15.4782C2.19159 15.5178 2.19159 15.5771 2.19159 15.6167C2.19159 21.0005 6.00219 25.4737 11.0764 26.5029C10.1484 26.7602 9.16124 26.8988 8.1543 26.8988C7.44351 26.8988 6.75247 26.8196 6.06143 26.7009C7.46325 31.1147 11.57 34.3212 16.4073 34.4202C12.6165 37.3891 7.83839 39.1705 2.6457 39.1705C1.75722 39.1705 0.868739 39.1111 0 39.0121C4.89653 42.1592 10.721 44 16.9799 44C37.3558 44 48.4914 27.0769 48.4914 12.4103C48.4914 11.9352 48.4717 11.4404 48.4519 10.9654C50.6435 9.38192 52.5192 7.4224 54 5.20558Z" fill="#00ACED"></path> </svg> 